<svg width="154" height="40" viewBox="0 0 154 40" fill="none" xmlns="http://www.w3.org/2000/svg">
<path d="M19.9999 20.0002V26.6668M13.3333 20.0002H19.9999H13.3333ZM26.6666 20.0002H19.9999H26.6666ZM19.9999 20.0002V13.3335V20.0002Z" stroke="#333333" stroke-width="2" stroke-linecap="round" stroke-linejoin="round"/>
<path d="M19.9999 36.6668C29.2046 36.6668 36.6666 29.2048 36.6666 20.0002C36.6666 10.7954 29.2046 3.3335 19.9999 3.3335C10.7952 3.3335 3.33325 10.7954 3.33325 20.0002C3.33325 29.2048 10.7952 36.6668 19.9999 36.6668Z" stroke="#333333" stroke-width="2" stroke-linecap="round" stroke-linejoin="round"/>
<path d="M50.58 27L55.5 12.26H58.06L62.98 27H60.88L59.58 23.14H53.94L52.66 27H50.58ZM54.42 21.32H59.08L56.76 14L54.42 21.32ZM68.1417 27.12C66.8484 27.12 65.8817 26.6933 65.2417 25.84C64.6151 24.9867 64.3017 23.62 64.3017 21.74C64.3017 20.42 64.4284 19.3533 64.6817 18.54C64.9484 17.7133 65.3751 17.1133 65.9617 16.74C66.5484 16.3533 67.3417 16.16 68.3417 16.16C68.9017 16.16 69.4551 16.22 70.0017 16.34C70.5484 16.46 71.0351 16.5933 71.4617 16.74V11.74H73.4617V27H71.8217L71.4617 25.94C71.2484 26.1267 70.9551 26.3133 70.5817 26.5C70.2084 26.6733 69.8084 26.82 69.3817 26.94C68.9551 27.06 68.5417 27.12 68.1417 27.12ZM68.7817 25.48C69.3284 25.48 69.8217 25.3933 70.2617 25.22C70.7151 25.0467 71.1151 24.8667 71.4617 24.68V18.18C71.0484 18.06 70.6417 17.9533 70.2417 17.86C69.8551 17.7533 69.4217 17.7 68.9417 17.7C68.3017 17.7 67.7884 17.8133 67.4017 18.04C67.0284 18.2667 66.7551 18.6667 66.5817 19.24C66.4084 19.8133 66.3217 20.6133 66.3217 21.64C66.3217 23.0667 66.5084 24.0667 66.8817 24.64C67.2551 25.2 67.8884 25.48 68.7817 25.48ZM79.6847 27.12C78.3914 27.12 77.4247 26.6933 76.7847 25.84C76.158 24.9867 75.8447 23.62 75.8447 21.74C75.8447 20.42 75.9714 19.3533 76.2247 18.54C76.4914 17.7133 76.918 17.1133 77.5047 16.74C78.0914 16.3533 78.8847 16.16 79.8847 16.16C80.4447 16.16 80.998 16.22 81.5447 16.34C82.0914 16.46 82.578 16.5933 83.0047 16.74V11.74H85.0047V27H83.3647L83.0047 25.94C82.7914 26.1267 82.498 26.3133 82.1247 26.5C81.7514 26.6733 81.3514 26.82 80.9247 26.94C80.498 27.06 80.0847 27.12 79.6847 27.12ZM80.3247 25.48C80.8714 25.48 81.3647 25.3933 81.8047 25.22C82.258 25.0467 82.658 24.8667 83.0047 24.68V18.18C82.5914 18.06 82.1847 17.9533 81.7847 17.86C81.398 17.7533 80.9647 17.7 80.4847 17.7C79.8447 17.7 79.3314 17.8133 78.9447 18.04C78.5714 18.2667 78.298 18.6667 78.1247 19.24C77.9514 19.8133 77.8647 20.6133 77.8647 21.64C77.8647 23.0667 78.0514 24.0667 78.4247 24.64C78.798 25.2 79.4314 25.48 80.3247 25.48ZM93.0797 27V16.3H94.6197L95.0797 18.1C95.533 17.5533 96.0397 17.0933 96.5997 16.72C97.1597 16.3467 97.813 16.16 98.5597 16.16C98.933 16.16 99.253 16.2 99.5197 16.28V18.34C99.333 18.3133 99.133 18.2933 98.9197 18.28C98.7197 18.2533 98.5197 18.24 98.3197 18.24C97.6397 18.24 97.053 18.3667 96.5597 18.62C96.0797 18.86 95.5864 19.22 95.0797 19.7V27H93.0797ZM105.62 27.12C104.487 27.12 103.58 26.9533 102.9 26.62C102.233 26.2867 101.753 25.7267 101.46 24.94C101.18 24.14 101.04 23.04 101.04 21.64C101.04 20.2133 101.18 19.1067 101.46 18.32C101.753 17.52 102.233 16.96 102.9 16.64C103.567 16.32 104.467 16.16 105.6 16.16C106.573 16.16 107.367 16.2667 107.98 16.48C108.593 16.6933 109.04 17.06 109.32 17.58C109.613 18.1 109.76 18.82 109.76 19.74C109.76 20.74 109.473 21.44 108.9 21.84C108.327 22.2267 107.553 22.42 106.58 22.42H103.04C103.053 23.1933 103.14 23.8133 103.3 24.28C103.473 24.7333 103.773 25.0667 104.2 25.28C104.64 25.48 105.28 25.58 106.12 25.58H109.46V26.78C108.887 26.86 108.3 26.9333 107.7 27C107.113 27.08 106.42 27.12 105.62 27.12ZM103.02 21.16H106.4C106.933 21.16 107.327 21.06 107.58 20.86C107.833 20.6467 107.96 20.28 107.96 19.76C107.96 18.9467 107.78 18.3933 107.42 18.1C107.06 17.7933 106.453 17.64 105.6 17.64C104.933 17.64 104.413 17.74 104.04 17.94C103.667 18.14 103.4 18.5 103.24 19.02C103.093 19.5267 103.02 20.24 103.02 21.16ZM114.825 27L110.945 16.3H113.005L116.025 25.14L119.125 16.3H121.165L117.145 27H114.825ZM123.184 14.5C122.944 14.5 122.824 14.3867 122.824 14.16V12.48C122.824 12.24 122.944 12.12 123.184 12.12H124.664C124.877 12.12 124.984 12.24 124.984 12.48V14.16C124.984 14.3867 124.877 14.5 124.664 14.5H123.184ZM122.904 27V16.3H124.904V27H122.904ZM131.929 27.12C130.795 27.12 129.889 26.9533 129.209 26.62C128.542 26.2867 128.062 25.7267 127.769 24.94C127.489 24.14 127.349 23.04 127.349 21.64C127.349 20.2133 127.489 19.1067 127.769 18.32C128.062 17.52 128.542 16.96 129.209 16.64C129.875 16.32 130.775 16.16 131.909 16.16C132.882 16.16 133.675 16.2667 134.289 16.48C134.902 16.6933 135.349 17.06 135.629 17.58C135.922 18.1 136.069 18.82 136.069 19.74C136.069 20.74 135.782 21.44 135.209 21.84C134.635 22.2267 133.862 22.42 132.889 22.42H129.349C129.362 23.1933 129.449 23.8133 129.609 24.28C129.782 24.7333 130.082 25.0667 130.509 25.28C130.949 25.48 131.589 25.58 132.429 25.58H135.769V26.78C135.195 26.86 134.609 26.9333 134.009 27C133.422 27.08 132.729 27.12 131.929 27.12ZM129.329 21.16H132.709C133.242 21.16 133.635 21.06 133.889 20.86C134.142 20.6467 134.269 20.28 134.269 19.76C134.269 18.9467 134.089 18.3933 133.729 18.1C133.369 17.7933 132.762 17.64 131.909 17.64C131.242 17.64 130.722 17.74 130.349 17.94C129.975 18.14 129.709 18.5 129.549 19.02C129.402 19.5267 129.329 20.24 129.329 21.16ZM140.374 27L137.254 16.3H139.314L141.654 25.14L144.174 16.3H145.874L148.394 25.14L150.634 16.3H152.694L149.614 27H147.394L144.994 19.06L142.554 27H140.374Z" fill="#333333"/>
</svg>
