<svg width="10" height="20" viewBox="0 0 10 20" fill="none" xmlns="http://www.w3.org/2000/svg">
<path d="M2.16058 4.03403C2.16058 4.55867 2.16058 6.89826 2.16058 6.89826H0V10.4006H2.16058V20H6.59854V10.3935H9.57664C9.57664 10.3935 9.85401 8.71322 9.9927 6.87699C9.60584 6.87699 6.62044 6.87699 6.62044 6.87699C6.62044 6.87699 6.62044 4.84226 6.62044 4.48068C6.62044 4.1262 7.10219 3.6441 7.58394 3.6441C8.05839 3.6441 9.06569 3.6441 10 3.6441C10 3.16909 10 1.51719 10 0C8.75182 0 7.33577 0 6.71533 0C2.05109 0.00708968 2.16058 3.50939 2.16058 4.03403Z" fill="white"/>
</svg>
