<svg width="20" height="20" viewBox="0 0 20 20" fill="none" xmlns="http://www.w3.org/2000/svg">
<path d="M1.05884 5.5658C1.69198 4.2764 2.58655 3.1866 3.71396 2.28043C5.24167 1.04692 6.99405 0.304415 8.95884 0.0768743C11.2668 -0.190586 13.4358 0.236552 15.4414 1.41018C15.9398 1.7016 16.4054 2.03293 16.8507 2.3922C16.961 2.48003 16.9487 2.53192 16.8548 2.61974C15.9438 3.50595 15.0329 4.39217 14.1302 5.28636C14.024 5.39015 13.9668 5.38217 13.8524 5.29834C11.2055 3.30636 7.34534 3.84527 5.37239 6.47995C5.02518 6.94302 4.74333 7.44201 4.54726 7.98492C4.53092 8.03282 4.49824 8.07673 4.47373 8.12464C3.94679 7.73343 3.41577 7.34221 2.89291 6.94701C2.28019 6.48794 1.66747 6.02886 1.05884 5.5658Z" fill="white"/>
<path d="M4.47367 11.8691C4.64931 12.2484 4.79636 12.6436 5.01694 12.9989C5.94419 14.4839 7.26767 15.4379 9.01188 15.7773C10.5845 16.0846 12.0959 15.8771 13.5052 15.1066C13.5542 15.0827 13.6032 15.0587 13.6481 15.0348C13.6726 15.0587 13.6931 15.0866 13.7176 15.1066C14.7714 15.905 15.8294 16.7034 16.8833 17.5018C16.3768 17.9928 15.8008 18.388 15.1881 18.7313C13.4112 19.7213 11.4873 20.1205 9.46121 19.9688C6.9368 19.7772 4.7596 18.8031 2.96229 17.0467C2.17392 16.2762 1.52444 15.406 1.05469 14.412C1.49176 14.0847 1.92883 13.7613 2.36591 13.434C3.06849 12.911 3.77108 12.3921 4.47367 11.8691Z" fill="white"/>
<path d="M16.8875 17.502C15.8336 16.7036 14.7757 15.9052 13.7218 15.1068C13.6973 15.0868 13.6728 15.0589 13.6523 15.0349C14.0159 14.7595 14.3876 14.492 14.6858 14.1407C15.1841 13.5579 15.515 12.8992 15.6866 12.1607C15.707 12.0689 15.6907 12.037 15.5967 12.041C15.5477 12.045 15.5028 12.041 15.4537 12.041C13.7871 12.041 12.1165 12.037 10.4499 12.045C10.266 12.045 10.2252 11.9971 10.2293 11.8254C10.2374 10.6677 10.2374 9.51008 10.2293 8.35242C10.2293 8.20471 10.2701 8.16479 10.4213 8.16479C13.4767 8.16879 16.5321 8.16879 19.5916 8.16479C19.7224 8.16479 19.7755 8.19673 19.8081 8.33246C20.0573 9.43024 20.041 10.532 19.8898 11.6418C19.7673 12.528 19.5467 13.3863 19.2077 14.2166C18.7052 15.4421 17.9659 16.512 16.9937 17.4301C16.9569 17.458 16.9202 17.478 16.8875 17.502Z" fill="white"/>
<path d="M4.47378 11.8694C3.77119 12.3923 3.06861 12.9113 2.36602 13.4342C1.92895 13.7575 1.49188 14.0849 1.0548 14.4122C0.715765 13.7975 0.495186 13.1468 0.315455 12.4761C-0.0276679 11.1788 -0.0807703 9.86141 0.10713 8.54008C0.254183 7.50217 0.560543 6.50418 1.0548 5.57007C1.66752 6.02914 2.27616 6.49221 2.88888 6.95128C3.41582 7.34648 3.94276 7.73769 4.4697 8.12891C4.37983 8.55604 4.2532 8.9752 4.21235 9.41431C4.13883 10.2127 4.21644 10.9911 4.44927 11.7576C4.46561 11.7895 4.4697 11.8294 4.47378 11.8694Z" fill="white"/>
</svg>
