<svg width="40" height="40" viewBox="0 0 40 40" fill="none" xmlns="http://www.w3.org/2000/svg">
<g filter="url(#filter0_d)">
<path fill-rule="evenodd" clip-rule="evenodd" d="M20.0002 5.66699C15.766 5.66699 12.3335 9.09947 12.3335 13.3337C12.3335 16.0022 13.6969 18.3524 15.7652 19.7255C10.8522 21.4679 7.3335 26.1565 7.3335 31.6669V33.3335C7.3335 33.8858 7.78121 34.3335 8.3335 34.3335C8.88578 34.3335 9.3335 33.8858 9.3335 33.3335V31.6669C9.3335 25.7874 14.0904 21.0189 19.9655 21.0003C19.9771 21.0003 19.9886 21.0003 20.0002 21.0003C20.0117 21.0003 20.0233 21.0003 20.0348 21.0003C25.9099 21.0189 30.6668 25.7874 30.6668 31.6669V33.3335C30.6668 33.8858 31.1145 34.3335 31.6668 34.3335C32.2191 34.3335 32.6668 33.8858 32.6668 33.3335V31.6669C32.6668 26.1565 29.1482 21.4679 24.2351 19.7255C26.3034 18.3524 27.6668 16.0022 27.6668 13.3337C27.6668 9.09947 24.2343 5.66699 20.0002 5.66699ZM20.0326 19.0002C23.1472 18.9828 25.6668 16.4524 25.6668 13.3337C25.6668 10.2041 23.1297 7.66699 20.0002 7.66699C16.8705 7.66699 14.3335 10.204 14.3335 13.3337C14.3335 16.4524 16.853 18.9828 19.9677 19.0002C19.9785 19.0002 19.9893 19.0002 20.0002 19.0002C20.011 19.0002 20.0218 19.0002 20.0326 19.0002Z" fill="white"/>
</g>
<defs>
<filter id="filter0_d" x="-4" y="-3" width="48" height="48" filterUnits="userSpaceOnUse" color-interpolation-filters="sRGB">
<feFlood flood-opacity="0" result="BackgroundImageFix"/>
<feColorMatrix in="SourceAlpha" type="matrix" values="0 0 0 0 0 0 0 0 0 0 0 0 0 0 0 0 0 0 127 0" result="hardAlpha"/>
<feOffset dy="1"/>
<feGaussianBlur stdDeviation="2"/>
<feComposite in2="hardAlpha" operator="out"/>
<feColorMatrix type="matrix" values="0 0 0 0 0 0 0 0 0 0 0 0 0 0 0 0 0 0 0.25 0"/>
<feBlend mode="normal" in2="BackgroundImageFix" result="effect1_dropShadow"/>
<feBlend mode="normal" in="SourceGraphic" in2="effect1_dropShadow" result="shape"/>
</filter>
</defs>
</svg>
