<svg width="40" height="40" viewBox="0 0 40 40" fill="none" xmlns="http://www.w3.org/2000/svg">
<g opacity="0.6">
<path d="M5 31.6667V8.33333C5 6.49238 6.49238 5 8.33333 5H26.9527C27.8367 5 28.6845 5.35118 29.3097 5.97632L34.0237 10.6903C34.6488 11.3155 35 12.1633 35 13.0474V31.6667C35 33.5077 33.5077 35 31.6667 35H8.33333C6.49238 35 5 33.5077 5 31.6667Z" stroke="#333333" stroke-width="1.5"/>
<path d="M14.3335 15H25.6668C26.2192 15 26.6668 14.5523 26.6668 14V6C26.6668 5.44772 26.2192 5 25.6668 5H14.3335C13.7812 5 13.3335 5.44772 13.3335 6V14C13.3335 14.5523 13.7812 15 14.3335 15Z" stroke="#333333" stroke-width="1.5"/>
<path d="M10 22.6665V34.9998H30V22.6665C30 22.1142 29.5523 21.6665 29 21.6665H11C10.4477 21.6665 10 22.1142 10 22.6665Z" stroke="#333333" stroke-width="1.5"/>
</g>
</svg>
