<svg width="40" height="40" viewBox="0 0 40 40" fill="none" xmlns="http://www.w3.org/2000/svg">
<g opacity="0.8">
<path d="M30 36.6665C32.7615 36.6665 35 34.428 35 31.6665C35 28.905 32.7615 26.6665 30 26.6665C27.2385 26.6665 25 28.905 25 31.6665C25 34.428 27.2385 36.6665 30 36.6665Z" stroke="white" stroke-width="2" stroke-linecap="round" stroke-linejoin="round"/>
<path d="M30 13.3335C32.7615 13.3335 35 11.0949 35 8.3335C35 5.57208 32.7615 3.3335 30 3.3335C27.2385 3.3335 25 5.57208 25 8.3335C25 11.0949 27.2385 13.3335 30 13.3335Z" stroke="white" stroke-width="2" stroke-linecap="round" stroke-linejoin="round"/>
<path d="M10 25C12.7614 25 15 22.7615 15 20C15 17.2385 12.7614 15 10 15C7.23858 15 5 17.2385 5 20C5 22.7615 7.23858 25 10 25Z" stroke="white" stroke-width="2" stroke-linecap="round" stroke-linejoin="round"/>
<path d="M25.8332 10.8335L14.1665 17.5002" stroke="white" stroke-width="2"/>
<path d="M14.1665 22.5L25.8332 29.1667" stroke="white" stroke-width="2"/>
</g>
</svg>
